<?xml version="1.0" encoding="UTF-8" standalone="no"?>
<svg
   xmlns:dc="http://purl.org/dc/elements/1.1/"
   xmlns:cc="http://creativecommons.org/ns#"
   xmlns:rdf="http://www.w3.org/1999/02/22-rdf-syntax-ns#"
   xmlns:svg="http://www.w3.org/2000/svg"
   xmlns="http://www.w3.org/2000/svg"
   xmlns:sodipodi="http://sodipodi.sourceforge.net/DTD/sodipodi-0.dtd"
   xmlns:inkscape="http://www.inkscape.org/namespaces/inkscape"
   version="1.1"
   width="50"
   height="50"
   data-icon="pie-chart"
   viewBox="0 0 50 50"
   id="svg4293"
   inkscape:version="0.48.4 r9939"
   sodipodi:docname="5pc_gray_pie-chart.svg">
  <metadata
     id="metadata4301">
    <rdf:RDF>
      <cc:Work
         rdf:about="">
        <dc:format>image/svg+xml</dc:format>
        <dc:type
           rdf:resource="http://purl.org/dc/dcmitype/StillImage" />
        <dc:title></dc:title>
      </cc:Work>
    </rdf:RDF>
  </metadata>
  <defs
     id="defs4299" />
  <sodipodi:namedview
     pagecolor="#ffffff"
     bordercolor="#666666"
     borderopacity="1"
     objecttolerance="10"
     gridtolerance="10"
     guidetolerance="10"
     inkscape:pageopacity="0"
     inkscape:pageshadow="2"
     inkscape:window-width="976"
     inkscape:window-height="709"
     id="namedview4297"
     showgrid="false"
     inkscape:zoom="3.75"
     inkscape:cx="19.35"
     inkscape:cy="25.0005"
     inkscape:window-x="0"
     inkscape:window-y="21"
     inkscape:window-maximized="0"
     inkscape:current-layer="svg4293"
     fit-margin-top="0"
     fit-margin-left="0"
     fit-margin-right="0"
     fit-margin-bottom="0" />
  <path
     d="M 21.875,0 C 15.8125,0 10.38125,2.443445 6.44375,6.442945 L 25,24.996875 V 0.193726 C 24,0.006249 22.9375,0 21.875,0 z M 31.25,6.64292 V 27.927759 L 14.25625,44.919385 C 18.00625,48.043995 22.8125,50 28.125,50 40.1875,50 50,40.188726 50,28.127734 50,17.129109 41.8125,8.148981 31.25,6.64292 z M 5.6625,14.848144 C 2.225,18.222722 0,22.87839 0,28.127734 0,34.064492 2.71875,39.401325 7.03125,42.775903 L 20.50625,29.496313 5.6625,14.848144 z"
     id="path4295"
     style="fill:#e6e6e6"
     inkscape:connector-curvature="0" />
</svg>
